<svg xmlns="http://www.w3.org/2000/svg" version="1.1" xmlns:xlink="http://www.w3.org/1999/xlink" xmlns:svgjs="http://svgjs.dev/svgjs" width="1500" height="1500" viewBox="0 0 1500 1500"><rect width="1500" height="1500" fill="#000000"></rect><g transform="matrix(0.6666666666666666,0,0,0.6666666666666666,249.39393939393938,520.2060320051812)"><svg viewBox="0 0 396 182" data-background-color="#0042c7" preserveAspectRatio="xMidYMid meet" height="689" width="1500" xmlns="http://www.w3.org/2000/svg" xmlns:xlink="http://www.w3.org/1999/xlink"><g id="tight-bounds" transform="matrix(1,0,0,1,0.2400000000000091,0.050440148890501746)"><svg viewBox="0 0 395.52 181.899119702219" height="181.899119702219" width="395.52"><g><svg viewBox="0 0 395.52000000000004 181.89911970221902" height="181.899119702219" width="395.52"><g transform="matrix(1,0,0,1,0,109.7797876133162)"><svg viewBox="0 0 395.52000000000004 72.11933208890284" height="72.11933208890284" width="395.52000000000004"><g id="textblocktransform"><svg viewBox="0 0 395.52000000000004 72.11933208890284" height="72.11933208890284" width="395.52000000000004" id="textblock"><g><svg viewBox="0 0 395.52000000000004 42.82887996430165" height="42.82887996430165" width="395.52000000000004"><g transform="matrix(1,0,0,1,0,0)"><svg width="395.52000000000004" viewBox="3 -35.9 336.12 36.4" height="42.82887996430165" data-palette-color="#e1e1dd"><path d="M16.95 0.5L16.95 0.5Q12.35 0.5 9.33-1.2 6.3-2.9 4.75-5.95 3.2-9 3.05-13.05L3.05-13.05Q3-15.1 3-17.45 3-19.8 3.05-21.95L3.05-21.95Q3.2-26 4.75-29.05 6.3-32.1 9.33-33.8 12.35-35.5 16.95-35.5L16.95-35.5Q20.4-35.5 23-34.55 25.6-33.6 27.33-32 29.05-30.4 29.95-28.43 30.85-26.45 30.95-24.35L30.95-24.35Q31-23.9 30.68-23.6 30.35-23.3 29.9-23.3L29.9-23.3 27.15-23.3Q26.7-23.3 26.38-23.55 26.05-23.8 25.9-24.45L25.9-24.45Q25.05-28.35 22.73-29.8 20.4-31.25 16.95-31.25L16.95-31.25Q12.9-31.25 10.55-28.98 8.2-26.7 8.05-21.7L8.05-21.7Q7.9-17.6 8.05-13.3L8.05-13.3Q8.2-8.3 10.55-6.03 12.9-3.75 16.95-3.75L16.95-3.75Q20.4-3.75 22.73-5.2 25.05-6.65 25.9-10.55L25.9-10.55Q26.05-11.2 26.38-11.45 26.7-11.7 27.15-11.7L27.15-11.7 29.9-11.7Q30.35-11.7 30.68-11.43 31-11.15 30.95-10.7L30.95-10.7Q30.85-8.6 29.95-6.6 29.05-4.6 27.33-3 25.6-1.4 23-0.45 20.4 0.5 16.95 0.5ZM44.25 0.5L44.25 0.5Q41.75 0.5 39.7-0.5 37.65-1.5 36.4-3.2 35.15-4.9 35.15-7.05L35.15-7.05Q35.15-10.5 37.95-12.55 40.75-14.6 45.25-15.25L45.25-15.25 52.7-16.3 52.7-17.75Q52.7-20.15 51.32-21.5 49.95-22.85 46.85-22.85L46.85-22.85Q44.65-22.85 43.25-21.95 41.85-21.05 41.3-19.65L41.3-19.65Q41-18.9 40.25-18.9L40.25-18.9 38-18.9Q37.45-18.9 37.17-19.23 36.9-19.55 36.9-20L36.9-20Q36.9-20.75 37.47-21.85 38.05-22.95 39.25-24 40.45-25.05 42.32-25.78 44.2-26.5 46.9-26.5L46.9-26.5Q49.9-26.5 51.95-25.73 54-24.95 55.17-23.65 56.35-22.35 56.87-20.7 57.4-19.05 57.4-17.35L57.4-17.35 57.4-1.15Q57.4-0.65 57.07-0.33 56.75 0 56.25 0L56.25 0 53.95 0Q53.4 0 53.1-0.33 52.8-0.65 52.8-1.15L52.8-1.15 52.8-3.3Q52.15-2.4 51.05-1.53 49.95-0.65 48.3-0.08 46.65 0.5 44.25 0.5ZM45.3-3.25L45.3-3.25Q47.35-3.25 49.05-4.13 50.75-5 51.72-6.85 52.7-8.7 52.7-11.5L52.7-11.5 52.7-12.9 46.9-12.05Q43.35-11.55 41.55-10.38 39.75-9.2 39.75-7.4L39.75-7.4Q39.75-6 40.57-5.08 41.4-4.15 42.67-3.7 43.95-3.25 45.3-3.25ZM68.2 0L65.75 0Q65.25 0 64.92-0.33 64.6-0.65 64.6-1.15L64.6-1.15 64.6-24.8Q64.6-25.3 64.92-25.65 65.25-26 65.75-26L65.75-26 68.05-26Q68.55-26 68.9-25.65 69.25-25.3 69.25-24.8L69.25-24.8 69.25-22.6Q70.25-24.3 72-25.15 73.75-26 76.25-26L76.25-26 78.2-26Q78.7-26 79.02-25.68 79.35-25.35 79.35-24.85L79.35-24.85 79.35-22.8Q79.35-22.3 79.02-22 78.7-21.7 78.2-21.7L78.2-21.7 75.2-21.7Q72.5-21.7 70.95-20.13 69.4-18.55 69.4-15.85L69.4-15.85 69.4-1.15Q69.4-0.65 69.05-0.33 68.7 0 68.2 0L68.2 0ZM96.69 0L94.14 0Q93.74 0 93.44-0.3 93.14-0.6 93.14-1L93.14-1Q93.14-1.25 93.19-1.55L93.19-1.55 105.59-33.9Q105.79-34.4 106.14-34.7 106.49-35 107.19-35L107.19-35 110.59-35Q111.29-35 111.64-34.7 111.99-34.4 112.19-33.9L112.19-33.9 124.54-1.55Q124.64-1.25 124.64-1L124.64-1Q124.64-0.6 124.34-0.3 124.04 0 123.64 0L123.64 0 121.09 0Q120.49 0 120.22-0.3 119.94-0.6 119.84-0.85L119.84-0.85 117.09-7.95 100.69-7.95 97.94-0.85Q97.89-0.6 97.59-0.3 97.29 0 96.69 0L96.69 0ZM108.89-30L102.14-12.25 115.64-12.25 108.89-30ZM138.34 0.5L138.34 0.5Q135.54 0.5 133.54-0.2 131.54-0.9 130.29-1.9 129.04-2.9 128.41-3.9 127.79-4.9 127.74-5.5L127.74-5.5Q127.69-6.05 128.09-6.35 128.49-6.65 128.89-6.65L128.89-6.65 131.14-6.65Q131.39-6.65 131.56-6.58 131.74-6.5 132.04-6.15L132.04-6.15Q132.69-5.45 133.49-4.75 134.29-4.05 135.46-3.6 136.64-3.15 138.39-3.15L138.39-3.15Q140.94-3.15 142.59-4.13 144.24-5.1 144.24-7L144.24-7Q144.24-8.25 143.56-9 142.89-9.75 141.16-10.35 139.44-10.95 136.44-11.6L136.44-11.6Q133.44-12.3 131.69-13.33 129.94-14.35 129.19-15.78 128.44-17.2 128.44-19L128.44-19Q128.44-20.85 129.54-22.58 130.64-24.3 132.76-25.4 134.89-26.5 138.09-26.5L138.09-26.5Q140.69-26.5 142.54-25.85 144.39-25.2 145.59-24.23 146.79-23.25 147.39-22.3 147.99-21.35 148.04-20.7L148.04-20.7Q148.09-20.2 147.74-19.88 147.39-19.55 146.94-19.55L146.94-19.55 144.84-19.55Q144.49-19.55 144.26-19.7 144.04-19.85 143.84-20.05L143.84-20.05Q143.34-20.7 142.66-21.35 141.99-22 140.91-22.43 139.84-22.85 138.09-22.85L138.09-22.85Q135.59-22.85 134.34-21.8 133.09-20.75 133.09-19.15L133.09-19.15Q133.09-18.2 133.64-17.45 134.19-16.7 135.74-16.1 137.29-15.5 140.34-14.8L140.34-14.8Q143.64-14.15 145.54-13.05 147.44-11.95 148.24-10.5 149.04-9.05 149.04-7.15L149.04-7.15Q149.04-5.05 147.84-3.3 146.64-1.55 144.24-0.53 141.84 0.5 138.34 0.5ZM163.84 0.5L163.84 0.5Q161.04 0.5 159.04-0.2 157.04-0.9 155.79-1.9 154.54-2.9 153.91-3.9 153.29-4.9 153.24-5.5L153.24-5.5Q153.19-6.05 153.59-6.35 153.99-6.65 154.39-6.65L154.39-6.65 156.64-6.65Q156.89-6.65 157.06-6.58 157.24-6.5 157.54-6.15L157.54-6.15Q158.19-5.45 158.99-4.75 159.79-4.05 160.96-3.6 162.14-3.15 163.89-3.15L163.89-3.15Q166.44-3.15 168.09-4.13 169.74-5.1 169.74-7L169.74-7Q169.74-8.25 169.06-9 168.39-9.75 166.66-10.35 164.94-10.95 161.94-11.6L161.94-11.6Q158.94-12.3 157.19-13.33 155.44-14.35 154.69-15.78 153.94-17.2 153.94-19L153.94-19Q153.94-20.85 155.04-22.58 156.14-24.3 158.26-25.4 160.39-26.5 163.59-26.5L163.59-26.5Q166.19-26.5 168.04-25.85 169.89-25.2 171.09-24.23 172.29-23.25 172.89-22.3 173.49-21.35 173.54-20.7L173.54-20.7Q173.59-20.2 173.24-19.88 172.89-19.55 172.44-19.55L172.44-19.55 170.34-19.55Q169.99-19.55 169.76-19.7 169.54-19.85 169.34-20.05L169.34-20.05Q168.84-20.7 168.16-21.35 167.49-22 166.41-22.43 165.34-22.85 163.59-22.85L163.59-22.85Q161.09-22.85 159.84-21.8 158.59-20.75 158.59-19.15L158.59-19.15Q158.59-18.2 159.14-17.45 159.69-16.7 161.24-16.1 162.79-15.5 165.84-14.8L165.84-14.8Q169.14-14.15 171.04-13.05 172.94-11.95 173.74-10.5 174.54-9.05 174.54-7.15L174.54-7.15Q174.54-5.05 173.34-3.3 172.14-1.55 169.74-0.53 167.34 0.5 163.84 0.5ZM183.88 0L181.48 0Q180.98 0 180.66-0.33 180.33-0.65 180.33-1.15L180.33-1.15 180.33-24.85Q180.33-25.35 180.66-25.68 180.98-26 181.48-26L181.48-26 183.88-26Q184.38-26 184.71-25.68 185.03-25.35 185.03-24.85L185.03-24.85 185.03-1.15Q185.03-0.65 184.71-0.33 184.38 0 183.88 0L183.88 0ZM184.23-30.85L181.08-30.85Q180.58-30.85 180.26-31.18 179.93-31.5 179.93-32L179.93-32 179.93-34.7Q179.93-35.2 180.26-35.55 180.58-35.9 181.08-35.9L181.08-35.9 184.23-35.9Q184.73-35.9 185.08-35.55 185.43-35.2 185.43-34.7L185.43-34.7 185.43-32Q185.43-31.5 185.08-31.18 184.73-30.85 184.23-30.85L184.23-30.85ZM201.43 0.5L201.43 0.5Q198.63 0.5 196.63-0.2 194.63-0.9 193.38-1.9 192.13-2.9 191.51-3.9 190.88-4.9 190.83-5.5L190.83-5.5Q190.78-6.05 191.18-6.35 191.58-6.65 191.98-6.65L191.98-6.65 194.23-6.65Q194.48-6.65 194.66-6.58 194.83-6.5 195.13-6.15L195.13-6.15Q195.78-5.45 196.58-4.75 197.38-4.05 198.56-3.6 199.73-3.15 201.48-3.15L201.48-3.15Q204.03-3.15 205.68-4.13 207.33-5.1 207.33-7L207.33-7Q207.33-8.25 206.66-9 205.98-9.75 204.26-10.35 202.53-10.95 199.53-11.6L199.53-11.6Q196.53-12.3 194.78-13.33 193.03-14.35 192.28-15.78 191.53-17.2 191.53-19L191.53-19Q191.53-20.85 192.63-22.58 193.73-24.3 195.86-25.4 197.98-26.5 201.18-26.5L201.18-26.5Q203.78-26.5 205.63-25.85 207.48-25.2 208.68-24.23 209.88-23.25 210.48-22.3 211.08-21.35 211.13-20.7L211.13-20.7Q211.18-20.2 210.83-19.88 210.48-19.55 210.03-19.55L210.03-19.55 207.93-19.55Q207.58-19.55 207.36-19.7 207.13-19.85 206.93-20.05L206.93-20.05Q206.43-20.7 205.76-21.35 205.08-22 204.01-22.43 202.93-22.85 201.18-22.85L201.18-22.85Q198.68-22.85 197.43-21.8 196.18-20.75 196.18-19.15L196.18-19.15Q196.18-18.2 196.73-17.45 197.28-16.7 198.83-16.1 200.38-15.5 203.43-14.8L203.43-14.8Q206.73-14.15 208.63-13.05 210.53-11.95 211.33-10.5 212.13-9.05 212.13-7.15L212.13-7.15Q212.13-5.05 210.93-3.3 209.73-1.55 207.33-0.53 204.93 0.5 201.43 0.5ZM231.53 0L228.08 0Q225.28 0 223.53-1.07 221.78-2.15 220.98-4.13 220.18-6.1 220.18-8.8L220.18-8.8 220.18-22 216.28-22Q215.78-22 215.45-22.33 215.13-22.65 215.13-23.15L215.13-23.15 215.13-24.85Q215.13-25.35 215.45-25.68 215.78-26 216.28-26L216.28-26 220.18-26 220.18-34.35Q220.18-34.85 220.5-35.18 220.83-35.5 221.33-35.5L221.33-35.5 223.68-35.5Q224.18-35.5 224.5-35.18 224.83-34.85 224.83-34.35L224.83-34.35 224.83-26 231.03-26Q231.58-26 231.88-25.68 232.18-25.35 232.18-24.85L232.18-24.85 232.18-23.15Q232.18-22.65 231.88-22.33 231.58-22 231.03-22L231.03-22 224.83-22 224.83-9.15Q224.83-6.8 225.63-5.45 226.43-4.1 228.48-4.1L228.48-4.1 231.53-4.1Q232.03-4.1 232.35-3.78 232.68-3.45 232.68-2.95L232.68-2.95 232.68-1.15Q232.68-0.65 232.35-0.33 232.03 0 231.53 0L231.53 0ZM254.07 0L251.52 0Q250.97 0 250.67-0.33 250.37-0.65 250.37-1.15L250.37-1.15 250.37-33.8Q250.37-34.35 250.67-34.68 250.97-35 251.52-35L251.52-35 254.07-35Q254.62-35 254.95-34.68 255.27-34.35 255.27-33.8L255.27-33.8 255.27-20 272.47-20 272.47-33.8Q272.47-34.35 272.8-34.68 273.12-35 273.62-35L273.62-35 276.17-35Q276.72-35 277.05-34.68 277.37-34.35 277.37-33.8L277.37-33.8 277.37-1.15Q277.37-0.65 277.05-0.33 276.72 0 276.17 0L276.17 0 273.62 0Q273.12 0 272.8-0.33 272.47-0.65 272.47-1.15L272.47-1.15 272.47-15.5 255.27-15.5 255.27-1.15Q255.27-0.65 254.95-0.33 254.62 0 254.07 0L254.07 0ZM295.12 0.5L295.12 0.5Q291.92 0.5 289.7-0.93 287.47-2.35 286.32-4.9 285.17-7.45 285.17-10.75L285.17-10.75 285.17-24.85Q285.17-25.35 285.5-25.68 285.82-26 286.32-26L286.32-26 288.82-26Q289.32-26 289.65-25.68 289.97-25.35 289.97-24.85L289.97-24.85 289.97-11Q289.97-3.55 296.47-3.55L296.47-3.55Q299.57-3.55 301.45-5.53 303.32-7.5 303.32-11L303.32-11 303.32-24.85Q303.32-25.35 303.65-25.68 303.97-26 304.47-26L304.47-26 306.97-26Q307.47-26 307.77-25.68 308.07-25.35 308.07-24.85L308.07-24.85 308.07-1.15Q308.07-0.65 307.77-0.33 307.47 0 306.97 0L306.97 0 304.62 0Q304.12 0 303.8-0.33 303.47-0.65 303.47-1.15L303.47-1.15 303.47-3.35Q302.12-1.6 300.2-0.55 298.27 0.5 295.12 0.5ZM328.37 0.5L328.37 0.5Q325.37 0.5 323.37-0.58 321.37-1.65 320.17-3.25L320.17-3.25 320.17-1.15Q320.17-0.65 319.84-0.33 319.52 0 319.02 0L319.02 0 316.72 0Q316.22 0 315.89-0.33 315.57-0.65 315.57-1.15L315.57-1.15 315.57-34.35Q315.57-34.85 315.89-35.18 316.22-35.5 316.72-35.5L316.72-35.5 319.17-35.5Q319.67-35.5 319.97-35.18 320.27-34.85 320.27-34.35L320.27-34.35 320.27-22.85Q321.52-24.4 323.49-25.45 325.47-26.5 328.37-26.5L328.37-26.5Q331.17-26.5 333.14-25.53 335.12-24.55 336.39-22.85 337.67-21.15 338.32-19 338.97-16.85 339.07-14.5L339.07-14.5Q339.12-13.7 339.12-13 339.12-12.3 339.07-11.5L339.07-11.5Q338.97-9.1 338.32-6.95 337.67-4.8 336.39-3.13 335.12-1.45 333.14-0.48 331.17 0.5 328.37 0.5ZM327.32-3.55L327.32-3.55Q329.92-3.55 331.39-4.67 332.87-5.8 333.52-7.63 334.17-9.45 334.27-11.55L334.27-11.55Q334.32-13 334.27-14.45L334.27-14.45Q334.17-16.55 333.52-18.38 332.87-20.2 331.39-21.33 329.92-22.45 327.32-22.45L327.32-22.45Q324.97-22.45 323.42-21.35 321.87-20.25 321.09-18.55 320.32-16.85 320.27-15.1L320.27-15.1Q320.22-14.3 320.22-13.18 320.22-12.05 320.27-11.25L320.27-11.25Q320.37-9.4 321.09-7.63 321.82-5.85 323.34-4.7 324.87-3.55 327.32-3.55Z" opacity="1" transform="matrix(1,0,0,1,0,0)" fill="#ffffff" class="wordmark-text-0" data-fill-palette-color="primary" id="text-0"></path></svg></g></svg></g><g transform="matrix(1,0,0,1,75.54432000000003,52.939750630754126)"><svg viewBox="0 0 244.43135999999998 19.179581458148714" height="19.179581458148714" width="244.43135999999998"><g transform="matrix(1,0,0,1,0,0)"><svg width="244.43135999999998" viewBox="-0.17 -38.16 606.05 47.56" height="19.179581458148714" data-palette-color="#e1e1dd"><path d="M18.33 0L11.01 0Q11.33-0.95 11.33-4.44L11.33-4.44 11.33-11.23Q7.1-20.53 5.93-22.84 4.76-25.15 3.96-26.49L3.96-26.49Q1.42-30.79 0.89-31.42 0.37-32.06-0.17-32.47L-0.17-32.47 8.25-32.47Q8.52-31.98 8.98-31.03L8.98-31.03 14.89-18.55Q15.31-19.58 15.87-20.85L15.87-20.85Q21.19-32.3 21.26-32.47L21.26-32.47 29.32-32.47Q28.08-31.47 26.27-28.27L26.27-28.27Q25.71-27.32 25.15-26.1L25.15-26.1 19.63-14.6Q18.7-12.52 18.04-10.86L18.04-10.86 18.04-3.86Q18.04-1.42 18.33 0L18.33 0ZM30.86-12.62L30.86-12.62Q30.86-15.31 31.77-17.76 32.69-20.21 34.4-22.05L34.4-22.05Q38.13-26 44.09-26L44.09-26Q50.02-26 53.51-22.27L53.51-22.27Q56.86-18.7 56.86-13.01L56.86-13.01Q56.86-7.32 53.42-3.59L53.42-3.59Q49.78 0.37 43.77 0.37L43.77 0.37Q37.57 0.37 34.06-3.52L34.06-3.52Q30.86-7.06 30.86-12.62ZM36.79-12.77L36.79-12.77Q36.79-11.23 37.3-9.79 37.81-8.35 38.77-7.32L38.77-7.32Q40.79-5.1 44.09-5.1L44.09-5.1Q47.14-5.1 48.9-7.28L48.9-7.28Q50.61-9.38 50.61-12.74L50.61-12.74Q50.61-16.16 48.85-18.26L48.85-18.26Q46.97-20.51 43.7-20.51L43.7-20.51Q40.38-20.51 38.5-18.12L38.5-18.12Q36.79-15.92 36.79-12.77ZM77.22 0L77.22-2.22Q74.09 0.37 70.41 0.37L70.41 0.37Q66.45 0.37 64.2-2.29L64.2-2.29Q62.06-4.88 62.06-9.4L62.06-9.4 62.06-19.09Q62.06-23.97 61.85-24.69 61.64-25.42 61.54-25.61L61.54-25.61Q62.67-25.51 63.89-25.51L63.89-25.51 65.91-25.51Q66.72-25.51 68.04-25.59L68.04-25.59 68.04-11.45Q68.04-6.42 70.77-5.62L70.77-5.62Q71.6-5.37 72.58-5.37L72.58-5.37Q75.46-5.37 77.22-7.47L77.22-7.47 77.22-25.51 83.27-25.51 83.27-3.13Q83.27-0.98 83.47 0L83.47 0 77.22 0ZM96.82-17.77L96.82-2.73Q96.82-0.63 96.92 0L96.92 0 90.84 0 90.84-25.51 96.82-25.51 96.82-23.63Q98.89-26 101.18-26 103.46-26 104.78-25.44L104.78-25.44 104.34-18.87 104.24-18.8Q103.39-20.31 100.7-20.31L100.7-20.31Q99.68-20.31 98.61-19.62 97.55-18.92 96.82-17.77L96.82-17.77ZM130.09-17.77L130.09-2.73Q130.09-0.63 130.19 0L130.19 0 124.11 0 124.11-25.51 130.09-25.51 130.09-23.63Q132.17-26 134.45-26 136.73-26 138.05-25.44L138.05-25.44 137.61-18.87 137.51-18.8Q136.66-20.31 133.97-20.31L133.97-20.31Q132.95-20.31 131.88-19.62 130.82-18.92 130.09-17.77L130.09-17.77ZM139.17-12.62L139.17-12.62Q139.17-15.31 140.09-17.76 141-20.21 142.71-22.05L142.71-22.05Q146.44-26 152.4-26L152.4-26Q158.33-26 161.83-22.27L161.83-22.27Q165.17-18.7 165.17-13.01L165.17-13.01Q165.17-7.32 161.73-3.59L161.73-3.59Q158.09 0.37 152.08 0.37L152.08 0.37Q145.88 0.37 142.37-3.52L142.37-3.52Q139.17-7.06 139.17-12.62ZM145.1-12.77L145.1-12.77Q145.1-11.23 145.61-9.79 146.13-8.35 147.08-7.32L147.08-7.32Q149.11-5.1 152.4-5.1L152.4-5.1Q155.45-5.1 157.21-7.28L157.21-7.28Q158.92-9.38 158.92-12.74L158.92-12.74Q158.92-16.16 157.16-18.26L157.16-18.26Q155.28-20.51 152.01-20.51L152.01-20.51Q148.69-20.51 146.81-18.12L146.81-18.12Q145.1-15.92 145.1-12.77ZM187.09-1.51L187.09-1.51Q183.63 0.37 180.82 0.37 178.01 0.37 176.01-0.16 174.01-0.68 172.61-1.71L172.61-1.71Q169.78-3.78 169.78-7.71L169.78-7.71Q169.78-11.23 173.25-13.57L173.25-13.57Q177.01-16.11 183.45-16.11L183.45-16.11 184.43-16.09Q184.72-16.06 185.09-16.05 185.46-16.04 185.75-15.99L185.75-15.99Q185.55-19.9 182.38-20.56L182.38-20.56Q181.33-20.78 180.15-20.78 178.96-20.78 177.83-20.57 176.69-20.36 175.62-20.02L175.62-20.02Q173.25-19.26 172.22-18.29L172.22-18.29 172.15-18.33 171.42-23.73Q175.74-26 180.87-26L180.87-26Q188.83-26 191.05-20.26L191.05-20.26Q191.75-18.43 191.75-16.14L191.75-16.14 191.75-7.3Q191.75-4.47 193.76-3.44L193.76-3.44 189.34 0.61Q187.95-0.12 187.09-1.51ZM185.77-6.49L185.77-11.6Q185.11-11.72 184.41-11.72L184.41-11.72 183.43-11.72Q178.03-11.72 176.57-9.33L176.57-9.33Q176.13-8.62 176.13-7.84 176.13-7.06 176.41-6.46 176.69-5.86 177.35-5.47L177.35-5.47Q178.62-4.74 181.12-4.74 183.63-4.74 185.8-5.93L185.8-5.93Q185.77-6.2 185.77-6.49L185.77-6.49ZM216.87-1.37L216.87-1.37Q213.77 0.37 210.67 0.37 207.57 0.37 205.25-0.61 202.93-1.59 201.3-3.3L201.3-3.3Q197.93-6.81 197.93-12.43L197.93-12.43Q197.93-18.24 201.84-22.09L201.84-22.09Q205.77-26 211.89-26L211.89-26Q213.77-26 215.58-25.51L215.58-25.51 215.58-36.38 221.56-36.38 221.56-10.28Q221.56-7.03 221.87-6.03 222.17-5.03 222.55-4.57 222.93-4.1 223.52-3.69L223.52-3.69 218.93 0.37Q217.66-0.32 216.87-1.37ZM211.82-5.25L211.82-5.25Q213.87-5.25 215.58-6.03L215.58-6.03 215.58-19.56Q213.87-20.26 211.87-20.26 209.87-20.26 208.44-19.73 207.01-19.19 205.99-18.24L205.99-18.24Q203.84-16.24 203.84-13.04L203.84-13.04Q203.84-9.55 205.79-7.47L205.79-7.47Q207.89-5.25 211.82-5.25ZM253.76 0.37L253.76 0.37Q246.87 0.37 243.38-2.15L243.38-2.15Q243.43-2.88 243.53-3.81L243.53-3.81 243.75-5.57Q243.94-7.3 243.99-7.73 244.04-8.15 244.07-8.19 244.09-8.23 244.46-7.8 244.82-7.37 245.85-6.76 246.87-6.15 248.22-5.69L248.22-5.69Q251.12-4.69 254.27-4.69L254.27-4.69Q258.5-4.69 258.5-7.5L258.5-7.5Q258.5-8.4 257.69-8.84L257.69-8.84Q256.25-9.57 253.45-9.95 250.66-10.33 248.88-11.06 247.09-11.79 245.97-12.82L245.97-12.82Q243.9-14.75 243.9-17.87L243.9-17.87Q243.9-21.68 246.83-23.85L246.83-23.85Q249.73-26 254.86-26L254.86-26Q259.94-26 263.52-23.12L263.52-23.12Q263.35-22.49 263.16-21.9L263.16-21.9Q262.6-20.29 262.33-19.58L262.33-19.58 261.77-18.14Q261.72-17.94 261.69-17.94L261.69-17.94Q261.64-17.94 261.3-18.46L261.3-18.46Q259.77-20.24 256.52-20.8L256.52-20.8Q255.52-21 254.47-21L254.47-21Q250.02-21 250.02-18.31L250.02-18.31Q250.02-17.38 250.95-16.89L250.95-16.89Q252.68-15.97 255.7-15.53 258.72-15.09 260.28-14.34 261.84-13.6 262.79-12.55L262.79-12.55Q264.55-10.64 264.55-7.5L264.55-7.5Q264.55-4.05 261.79-1.9L261.79-1.9Q258.91 0.37 253.76 0.37ZM274.92-28.83L269.43-32.79Q271.38-35.84 273.51-38.16L273.51-38.16 278.76-34.03Q277.71-32.74 276.8-31.49L276.8-31.49Q276.8-31.49 274.92-28.83L274.92-28.83ZM275.85-25.51L275.85-2.73Q275.85-0.63 275.95 0L275.95 0 269.75 0 269.75-25.51 275.85-25.51ZM300.24-1.37L300.24-1.37Q297.14 0.37 294.04 0.37 290.94 0.37 288.62-0.61 286.3-1.59 284.66-3.3L284.66-3.3Q281.29-6.81 281.29-12.43L281.29-12.43Q281.29-18.24 285.2-22.09L285.2-22.09Q289.13-26 295.26-26L295.26-26Q297.14-26 298.94-25.51L298.94-25.51 298.94-36.38 304.93-36.38 304.93-10.28Q304.93-7.03 305.23-6.03 305.54-5.03 305.91-4.57 306.29-4.1 306.88-3.69L306.88-3.69 302.29 0.37Q301.02-0.32 300.24-1.37ZM295.18-5.25L295.18-5.25Q297.24-5.25 298.94-6.03L298.94-6.03 298.94-19.56Q297.24-20.26 295.23-20.26 293.23-20.26 291.8-19.73 290.38-19.19 289.35-18.24L289.35-18.24Q287.2-16.24 287.2-13.04L287.2-13.04Q287.2-9.55 289.15-7.47L289.15-7.47Q291.25-5.25 295.18-5.25ZM310.73-12.55L310.73-12.55Q310.73-15.41 311.71-17.85 312.69-20.29 314.47-22.12L314.47-22.12Q318.28-26 324.43-26L324.43-26Q329.63-26 332.78-22.56L332.78-22.56Q335.88-19.24 335.88-14.21L335.88-14.21Q335.88-12.28 335.59-11.57L335.59-11.57Q333.15-10.89 325.65-10.89L325.65-10.89 317.06-10.89Q317.69-8.28 320.01-6.82 322.33-5.37 326.04-5.37L326.04-5.37Q329.92-5.37 332.71-6.76L332.71-6.76Q333.44-7.13 333.81-7.45L333.81-7.45Q333.76-6.42 333.68-5.35L333.68-5.35 333.41-1.54Q331.56-0.27 327.41 0.22L327.41 0.22Q326.19 0.37 325.07 0.37L325.07 0.37Q318.86 0.37 314.81-3.25L314.81-3.25Q310.73-6.88 310.73-12.55ZM329.39-15.63L329.39-15.63Q328.39-20.87 323.67-20.87L323.67-20.87Q319.96-20.87 318.03-17.68L318.03-17.68Q317.45-16.7 317.13-15.53L317.13-15.53Q317.72-15.5 318.57-15.48L318.57-15.48 320.38-15.48Q321.28-15.45 322.11-15.45L322.11-15.45 323.5-15.45Q324.75-15.45 325.94-15.48L325.94-15.48 327.95-15.55Q328.75-15.58 329.39-15.63ZM377.14-8.33L377.7-2.37Q374.96 0.37 369.13 0.37L369.13 0.37Q363.46 0.37 359.87-3.08L359.87-3.08Q356.24-6.57 356.24-12.35L356.24-12.35Q356.24-18.24 359.83-22.02L359.83-22.02Q363.63-26 370.01-26L370.01-26Q374.52-26 377.57-24.02L377.57-24.02 376.6-17.77 376.43-17.8Q375.26-19.21 373.96-19.65L373.96-19.65Q371.86-20.39 369.76-20.39 367.66-20.39 366.47-19.85 365.27-19.31 364.42-18.36L364.42-18.36Q362.71-16.41 362.71-13.18L362.71-13.18Q362.71-7.47 366.66-5.71L366.66-5.71Q368.03-5.13 369.55-5.13 371.08-5.13 372.22-5.4 373.35-5.66 374.28-6.13L374.28-6.13Q376.26-7.1 376.96-8.4L376.96-8.4 377.14-8.33ZM380.94-12.62L380.94-12.62Q380.94-15.31 381.86-17.76 382.77-20.21 384.48-22.05L384.48-22.05Q388.22-26 394.17-26L394.17-26Q400.11-26 403.6-22.27L403.6-22.27Q406.94-18.7 406.94-13.01L406.94-13.01Q406.94-7.32 403.5-3.59L403.5-3.59Q399.86 0.37 393.86 0.37L393.86 0.37Q387.66 0.37 384.14-3.52L384.14-3.52Q380.94-7.06 380.94-12.62ZM386.87-12.77L386.87-12.77Q386.87-11.23 387.39-9.79 387.9-8.35 388.85-7.32L388.85-7.32Q390.88-5.1 394.17-5.1L394.17-5.1Q397.23-5.1 398.98-7.28L398.98-7.28Q400.69-9.38 400.69-12.74L400.69-12.74Q400.69-16.16 398.93-18.26L398.93-18.26Q397.05-20.51 393.78-20.51L393.78-20.51Q390.46-20.51 388.58-18.12L388.58-18.12Q386.87-15.92 386.87-12.77ZM418.61-17.16L418.61-7.06Q418.61-1.56 418.81 0L418.81 0 412.43 0 412.43-25.51 418.61-25.51 418.61-23.32Q421.95-26 425.47-26L425.47-26Q429.62-26 431.5-22.41L431.5-22.41Q433.38-24.34 434.63-24.95L434.63-24.95Q436.7-26 438.79-26 440.88-26 442.34-25.29 443.81-24.58 444.76-23.29L444.76-23.29Q446.69-20.68 446.69-16.11L446.69-16.11 446.69-6.4Q446.69-2.27 446.81-1.44 446.93-0.61 447.14-0.37 447.35-0.12 447.49 0.07L447.49 0.07 447.44 0.17Q445.49 0 444.56 0L444.56 0 442.73 0Q441.83 0 440.51 0.07L440.51 0.07 440.51-13.13Q440.51-18.85 438.75-19.92L438.75-19.92Q438.17-20.26 437.37-20.26 436.58-20.26 435.97-20.08 435.36-19.9 434.82-19.48L434.82-19.48Q433.92-18.82 432.77-16.89L432.77-16.89Q432.79-16.7 432.79-16.5 432.79-16.31 432.79-10.06 432.79-3.81 433.09 0L433.09 0Q431.01 0 429.56 0 428.11 0 426.79 0.07L426.79 0.07 426.79-13.16Q426.79-17.14 426.31-18.33 425.84-19.53 425.3-19.9 424.76-20.26 423.98-20.26L423.98-20.26Q420.76-20.26 418.61-17.16L418.61-17.16ZM460.11-0.51L460.11-0.51 460.11 6.67Q460.11 8.76 460.21 9.4L460.21 9.4 454.13 9.4 454.13-25.51 460.11-25.51 460.11-23.93Q463.07-26 465.78-26 468.49-26 470.58-25.24 472.68-24.49 474.27-22.9L474.27-22.9Q477.76-19.46 477.76-13.09L477.76-13.09Q477.76-8.86 475.79-5.54L475.79-5.54Q474.1-2.73 471.12-1.05L471.12-1.05Q468.49 0.44 465.41 0.44 462.33 0.44 460.11-0.51ZM460.11-18.43L460.11-6.67Q461.97-5.1 464.92-5.1L464.92-5.1Q469.75-5.1 471.17-9.77L471.17-9.77Q471.66-11.35 471.66-13.17 471.66-14.99 471.32-16.08 470.98-17.16 470.43-17.96 469.88-18.75 469.19-19.27 468.51-19.8 467.8-20.12L467.8-20.12Q466.56-20.68 465.24-20.68 463.92-20.68 462.5-20.07 461.09-19.46 460.11-18.43L460.11-18.43ZM499.73-1.51L499.73-1.51Q496.27 0.37 493.46 0.37 490.65 0.37 488.65-0.16 486.65-0.68 485.26-1.71L485.26-1.71Q482.42-3.78 482.42-7.71L482.42-7.71Q482.42-11.23 485.89-13.57L485.89-13.57Q489.65-16.11 496.1-16.11L496.1-16.11 497.07-16.09Q497.36-16.06 497.73-16.05 498.1-16.04 498.39-15.99L498.39-15.99Q498.19-19.9 495.02-20.56L495.02-20.56Q493.97-20.78 492.79-20.78 491.6-20.78 490.47-20.57 489.33-20.36 488.26-20.02L488.26-20.02Q485.89-19.26 484.86-18.29L484.86-18.29 484.79-18.33 484.06-23.73Q488.38-26 493.51-26L493.51-26Q501.47-26 503.69-20.26L503.69-20.26Q504.4-18.43 504.4-16.14L504.4-16.14 504.4-7.3Q504.4-4.47 506.4-3.44L506.4-3.44 501.98 0.61Q500.59-0.12 499.73-1.51ZM498.41-6.49L498.41-11.6Q497.76-11.72 497.05-11.72L497.05-11.72 496.07-11.72Q490.68-11.72 489.21-9.33L489.21-9.33Q488.77-8.62 488.77-7.84 488.77-7.06 489.05-6.46 489.33-5.86 489.99-5.47L489.99-5.47Q491.26-4.74 493.76-4.74 496.27-4.74 498.44-5.93L498.44-5.93Q498.41-6.2 498.41-6.49L498.41-6.49ZM518.43-17.07L518.43-3.13Q518.43-0.98 518.63 0L518.63 0 512.5 0 512.5-25.51 518.43-25.51 518.43-23.34Q521.65-26 525.32-26L525.32-26Q529.32-26 531.71-23.28 534.11-20.56 534.11-16.11L534.11-16.11 534.11-6.4Q534.11-2.27 534.23-1.44 534.35-0.61 534.56-0.37 534.76-0.12 534.91 0.07L534.91 0.07 534.86 0.17Q532.88 0 531.98 0L531.98 0 530.27 0Q529.49 0 528.17 0.07L528.17 0.07 528.17-13.23Q528.17-20.39 523.83-20.39L523.83-20.39Q520.6-20.39 518.43-17.07L518.43-17.07ZM545.94-28.83L540.45-32.79Q542.4-35.84 544.53-38.16L544.53-38.16 549.78-34.03Q548.73-32.74 547.82-31.49L547.82-31.49Q547.82-31.49 545.94-28.83L545.94-28.83ZM546.87-25.51L546.87-2.73Q546.87-0.63 546.97 0L546.97 0 540.77 0 540.77-25.51 546.87-25.51ZM551.9-12.62L551.9-12.62Q551.9-15.31 552.81-17.76 553.73-20.21 555.44-22.05L555.44-22.05Q559.17-26 565.13-26L565.13-26Q571.06-26 574.55-22.27L574.55-22.27Q577.9-18.7 577.9-13.01L577.9-13.01Q577.9-7.32 574.46-3.59L574.46-3.59Q570.82 0.37 564.81 0.37L564.81 0.37Q558.61 0.37 555.1-3.52L555.1-3.52Q551.9-7.06 551.9-12.62ZM557.83-12.77L557.83-12.77Q557.83-11.23 558.34-9.79 558.86-8.35 559.81-7.32L559.81-7.32Q561.83-5.1 565.13-5.1L565.13-5.1Q568.18-5.1 569.94-7.28L569.94-7.28Q571.65-9.38 571.65-12.74L571.65-12.74Q571.65-16.16 569.89-18.26L569.89-18.26Q568.01-20.51 564.74-20.51L564.74-20.51Q561.42-20.51 559.54-18.12L559.54-18.12Q557.83-15.92 557.83-12.77ZM589.4-17.07L589.4-3.13Q589.4-0.98 589.59 0L589.59 0 583.46 0 583.46-25.51 589.4-25.51 589.4-23.34Q592.62-26 596.28-26L596.28-26Q600.28-26 602.68-23.28 605.07-20.56 605.07-16.11L605.07-16.11 605.07-6.4Q605.07-2.27 605.19-1.44 605.31-0.61 605.52-0.37 605.73-0.12 605.88 0.07L605.88 0.07 605.83 0.17Q603.85 0 602.95 0L602.95 0 601.24 0Q600.46 0 599.14 0.07L599.14 0.07 599.14-13.23Q599.14-20.39 594.79-20.39L594.79-20.39Q591.57-20.39 589.4-17.07L589.4-17.07Z" opacity="1" transform="matrix(1,0,0,1,0,0)" fill="#ffffff" class="slogan-text-1" data-fill-palette-color="secondary" id="text-1"></path></svg></g></svg></g></svg></g></svg></g><g transform="matrix(1,0,0,1,147.92554152656817,0)"><svg viewBox="0 0 99.66891694686373 99.66891694686373" height="99.66891694686373" width="99.66891694686373"><g><svg></svg></g><g id="icon-0"><svg viewBox="0 0 99.66891694686373 99.66891694686373" height="99.66891694686373" width="99.66891694686373"><g><path transform="scale(0.99669,0.99669)" d="M30 100c-16.569 0-30-13.431-30-30v-40c0-16.569 13.431-30 30-30h40c16.569 0 30 13.431 30 30v40c0 16.569-13.431 30-30 30z" fill="#ffffff" fill-rule="nonzero" stroke="none" stroke-width="1" stroke-linecap="butt" stroke-linejoin="miter" stroke-miterlimit="10" stroke-dasharray="" stroke-dashoffset="0" font-family="none" font-weight="none" font-size="none" text-anchor="none" style="mix-blend-mode: normal" data-fill-palette-color="accent"></path></g><g transform="matrix(1,0,0,1,19.933783389372753,30.402486976564127)"><svg viewBox="0 0 59.801350168118226 38.86394299373548" height="38.86394299373548" width="59.801350168118226"><g><svg xmlns="http://www.w3.org/2000/svg" xmlns:xlink="http://www.w3.org/1999/xlink" version="1.1" x="0" y="0" viewBox="0.0006883361805968269 17.94504342393936 99.9993116638194 64.98795657606064" enable-background="new 0 0 100 100" xml:space="preserve" height="38.86394299373548" width="59.801350168118226" class="icon-cg-0" data-fill-palette-color="quaternary" id="cg-0"><g fill="#0042c7" data-fill-palette-color="quaternary"><path d="M98.217 20.158c-0.552-0.087-13.673-2.137-21.041-2.137-1.237 0-2.269-0.147-3.086-0.032C69.342 18.661 56.44 22 51.819 23h-0.013c-0.136 0-0.35-0.332-0.601-0.516-0.594-0.613-1.537-1.078-2.685-1.078-0.699 0-1.388 0.254-2.045 0.654-1.268 0.772-6.412 4.364-8.403 5.75-0.697-0.169-1.695-0.322-2.935-0.322-2.711 0-5.491 0.763-8.263 2.255-6.398 3.448-11.89 8.311-12.102 8.5-1.532 1.33-3.734 4.502-2.267 7.953 0.945 2.225 0.77 2.764-0.747 5.108C10.111 53.852 2.131 66.84 1.369 68.082c-1.259 1.705-2.11 4.258-0.436 5.971 1.326 1.355 4.998 2.809 6.123 3.234 3.16 1.133 16.779 5.127 17.324 5.287 0.117 0.037 1.188 0.359 2.656 0.359 0 0 0 0 0.001 0 1.856 0 4.513-0.51 6.625-2.934 2.912-3.348 11.827-14.887 12.192-15.359 0.096-0.121 2.233-2.875 1.884-6.346l0.003-0.008c0.755-0.352 1.679-1.027 2.686-2.295 0.188-0.236 0.381-0.465 0.575-0.693 1.486-1.762 3.337-3.957 3.175-8.955-0.05-1.553-0.229-3.032-0.386-4.337-0.257-2.136-0.524-4.345 0.121-4.891 1.867-1.585 2.058-3.292 1.965-4.29 4.929-1.287 16.984-4.38 21.316-4.994 0.718-0.102 1.661-0.153 2.804-0.153 6.595 0 17.367 1.707 17.476 1.724 0.569 0.089 1.274-0.072 1.711-0.445S100 28.041 100 27.467v-5.372C100 21.13 99.17 20.309 98.217 20.158zM51.378 34.124c-2.258 1.909-1.879 5.039-1.48 8.353 0.155 1.285 0.315 2.613 0.36 3.995 0.112 3.493-0.932 4.732-2.254 6.298-0.215 0.256-0.431 0.512-0.644 0.779-0.694 0.873-1.158 1.125-1.289 1.184-0.732 0.07-1.377 0.547-1.647 1.25l-0.528 1.377c-0.128 0.334-0.163 0.695-0.1 1.049 0.356 1.979-1.015 3.795-1.034 3.82-0.092 0.117-9.223 11.936-12.059 15.195-0.918 1.053-2.152 1.588-3.668 1.588-0.001 0-0.001 0-0.001 0-0.865 0-1.494-0.182-1.519-0.189-0.141-0.043-14.085-4.133-17.105-5.217-1.621-0.611-3.673-1.559-4.448-2.109 0.094-0.309 0.343-0.791 0.592-1.127 0.039-0.051 0.075-0.104 0.108-0.158 0.087-0.143 8.719-14.195 10.389-16.775 1.798-2.78 2.768-4.756 1.063-8.771-0.719-1.691 1.218-3.447 1.245-3.472 0.054-0.047 5.392-4.766 11.375-7.99 2.193-1.182 4.347-1.78 6.402-1.78 1.559 0 2.488 0.364 2.49 0.364 0.624 0.271 1.344 0.202 1.905-0.189 2.039-1.423 7.501-5.211 8.887-6.105 0.011 0.017 0.023 0.033 0.034 0.05 0.316 0.742 0.592 1.539 0.881 2.373 0.659 1.898 1.336 3.853 2.601 5.533C51.824 33.721 51.527 33.997 51.378 34.124zM96 25.191c-4-0.516-10.84-1.433-15.914-1.433-1.344 0-2.485 0.062-3.397 0.191-4.76 0.674-17.743 4.022-22.331 5.226l-0.967-2.129c4.985-1.302 16.916-4.361 21.222-4.971 0.624-0.089 1.554-0.134 2.59-0.134 5.565 0 14.798 1.286 18.798 1.84V25.191z" fill="#000000" data-fill-palette-color="quaternary"></path><path d="M37.384 51.338c-0.614-0.676-1.213-1.226-1.716-1.579-1.926-1.352-7.226-1.815-8.805-1.925-0.726-0.052-1.399 0.295-1.787 0.898l-11.901 18.57c-0.551 0.859-0.351 1.996 0.461 2.615 1.401 1.07 8.599 6.402 12.662 6.402 0 0 0 0 0.001 0 0.345 0 0.676-0.035 0.984-0.105 5.843-1.312 13.418-11.707 13.762-17.242 0.143-2.299-1.62-5.268-3.373-7.301C37.59 51.549 37.491 51.438 37.384 51.338zM27.741 51.844c0.413 0.04 0.819 0.088 1.219 0.138-0.477 0.22-0.887 0.483-1.19 0.792-3.364 3.455-3.411 15.748-3.386 18.176 0.004 0.4 0.128 0.771 0.338 1.08-2.017-0.75-4.924-2.525-7.25-4.164L27.741 51.844zM28.188 71.576c0.074-0.209 0.119-0.432 0.117-0.666-0.063-6.219 0.788-13.873 2.204-15.338 0.495-0.336 2.572-0.674 4.651-0.783 1.083 1.424 2.02 3.17 1.972 3.939C36.905 62.385 31.954 69.176 28.188 71.576z" fill="#000000" data-fill-palette-color="quaternary"></path></g></svg></g></svg></g></svg></g></svg></g><g></g></svg></g><defs></defs></svg><rect width="395.52" height="181.899119702219" fill="none" stroke="none" visibility="hidden"></rect></g></svg></g></svg>